Coordinates
version=1
nRows=9
nColumns=63
inDegrees=yes

Units are S.I. units (second, meters, Newtons, ...)
If the header above contains a line with 'inDegrees', this indicates whether rotational values are in degrees (yes) or radians (no).

endheader
time	pelvis_tilt	pelvis_list	pelvis_rotation	pelvis_tx	pelvis_ty	pelvis_tz	hip_flexion_r	hip_adduction_r	hip_rotation_r	knee_angle_r	knee_angle_r_beta	ankle_angle_r	subtalar_angle_r	mtp_angle_r	hip_flexion_l	hip_adduction_l	hip_rotation_l	knee_angle_l	knee_angle_l_beta	ankle_angle_l	subtalar_angle_l	mtp_angle_l	L5_S1_Flex_Ext	L5_S1_Lat_Bending	L5_S1_axial_rotation	L4_L5_Flex_Ext	L4_L5_Lat_Bending	L4_L5_axial_rotation	L3_L4_Flex_Ext	L3_L4_Lat_Bending	L3_L4_axial_rotation	L2_L3_Flex_Ext	L2_L3_Lat_Bending	L2_L3_axial_rotation	L1_L2_Flex_Ext	L1_L2_Lat_Bending	L1_L2_axial_rotation	L1_T12_Flex_Ext	L1_T12_Lat_Bending	L1_T12_axial_rotation	Abs_r3	Abs_r2	Abs_r1	Abs_t1	Abs_t2	neck_flexion	neck_bending	neck_rotation	arm_flex_r	arm_add_r	arm_rot_r	elbow_flex_r	pro_sup_r	wrist_flex_r	wrist_dev_r	arm_flex_l	arm_add_l	arm_rot_l	elbow_flex_l	pro_sup_l	wrist_flex_l	wrist_dev_l
      0.00000000	      0.91249496	     -3.23684031	     94.70263116	      0.20974208	      0.77771725	      0.69522005	      9.68861191	     -1.07261999	     -6.27058502	     13.62656736	      0.23782847	     21.40799559	      0.77613716	      0.00000000	      6.20203216	     -0.56556190	      6.73078513	      1.66893067	      0.02912834	     21.33926457	     -6.73566968	      0.00000000	      0.53911376	      0.19468619	     -0.97957818	      1.00118817	      0.25893264	     -1.04080182	      0.88571000	      0.47336001	     -1.04080182	      0.61615312	      0.47336001	     -0.85713091	      0.50062104	      0.39700408	     -0.79590727	      0.30804960	      0.30156891	     -0.73468364	      3.85083571	      2.20232914	     -5.44811997	      0.00000000	      0.00000000	     28.32590532	      8.12442242	     11.44655363	     11.06689337	     -8.91146220	     57.59534002	     43.92845097	     74.66548536	     15.43839797	      6.81842544	      7.28137558	    -11.88427000	     46.32067277	     50.24089775	     69.56223462	      7.73457241	    -12.84392688
      0.02631579	      0.77470614	     -2.99749255	     94.36695316	      0.21034510	      0.77948977	      0.69523790	      9.48723009	     -1.14502055	     -5.94478442	     13.46052675	      0.23493051	     22.16638038	      1.37406479	      0.00000000	      5.99269246	     -0.47155781	      6.70745832	      2.03532508	      0.03552312	     21.23057395	     -7.12045755	      0.00000000	      0.51771041	      0.17001172	     -1.01473709	      0.96144001	      0.22611559	     -1.07815816	      0.85054644	      0.41336650	     -1.07815816	      0.59169123	      0.41336650	     -0.88789495	      0.48074589	      0.34668790	     -0.82447388	      0.29581973	      0.26334816	     -0.76105282	      3.69795372	      1.92320661	     -5.64366326	      0.00000000	      0.00000000	     28.31806891	      8.40261657	     11.13692301	     11.31294726	     -8.15198968	     57.80800421	     42.77036287	     73.25756759	     14.47294061	      7.10421533	      6.71294274	    -11.61566575	     44.82611707	     49.44698141	     69.66645173	      7.97523321	    -14.00341709
      0.05263158	      0.85065959	     -2.85794905	     94.34845569	      0.21037324	      0.78062643	      0.69549990	      9.39993357	     -1.03193348	     -5.67232212	     13.36023966	      0.23318017	     22.87848182	      1.51530971	      0.00000000	      5.95562393	     -0.55981723	      6.71722393	      2.33567699	      0.04076525	     21.16864212	     -7.11342188	      0.00000000	      0.49415756	      0.16756734	     -1.02694946	      0.91770000	      0.22286456	     -1.09113380	      0.81185146	      0.40742323	     -1.09113380	      0.56477268	      0.40742323	     -0.89858077	      0.45887471	      0.34170332	     -0.83439643	      0.28236163	      0.25956181	     -0.77021209	      3.52971804	      1.89555528	     -5.71158479	      0.00000000	      0.00000000	     28.27422155	      8.42579656	     11.14425473	     11.47985278	     -7.76253956	     57.67630260	     42.10798549	     73.01727795	     14.19929693	      7.24704102	      6.81029731	    -11.43957086	     44.67234831	     48.78679359	     69.67874840	      7.91602351	    -13.90858028
      0.07894737	      0.67290752	     -2.50986344	     94.26568297	      0.21053506	      0.78177814	      0.69607547	      9.16972606	     -1.26755100	     -6.14070891	     13.45809337	      0.23488804	     23.47922945	      2.75231385	      0.00000000	      5.81962803	     -0.40041845	      6.39671803	      2.85487309	      0.04982694	     21.31048044	     -6.85066786	      0.00000000	      0.41485619	      0.12634754	     -1.01326308	      0.77042943	      0.16804223	     -1.07659202	      0.68156723	      0.30720141	     -1.07659202	      0.47413914	      0.30720141	     -0.88660519	      0.38523546	      0.25764790	     -0.82327625	      0.23704883	      0.19571234	     -0.75994731	      2.96327627	      1.42926863	     -5.63546527	      0.00000000	      0.00000000	     28.21847758	      8.51456916	     10.98204373	     12.10627441	     -7.42179196	     59.99510076	     41.62483321	     60.53129294	     12.04420205	     10.18462513	      6.81810685	    -11.00948027	     42.69179694	     47.71633333	     72.43836073	     10.55297902	    -13.54657890
      0.10526316	      0.69930449	     -2.36822605	     94.41337676	      0.21038616	      0.78228722	      0.69638670	      9.13037947	     -1.24101721	     -5.97583098	     13.57482605	      0.23692541	     23.96824655	      2.76555373	      0.00000000	      5.80955993	     -0.42625839	      6.50295435	      3.09139226	      0.05395497	     21.30471971	     -6.79978286	      0.00000000	      0.36512128	      0.10778150	     -0.99588376	      0.67806673	      0.14334939	     -1.05812649	      0.59985775	      0.26205994	     -1.05812649	      0.41729711	      0.26205994	     -0.87139829	      0.33905162	      0.21978803	     -0.80915555	      0.20863030	      0.16695354	     -0.74691282	      2.60802479	      1.21924587	     -5.53880668	      0.00000000	      0.00000000	     28.11888768	      8.49242390	     11.04154431	     12.22293009	     -7.11828334	     59.77681704	     41.27365760	     60.35994139	     11.93685656	     10.30368395	      7.13709596	    -10.82408201	     42.77488644	     47.08829209	     72.48997472	     10.58130523	    -13.16248566
      0.13157895	      0.62735671	     -2.17672182	     94.66543874	      0.21023385	      0.78253060	      0.69685949	      9.06402866	     -1.32270098	     -5.96778750	     13.79754676	      0.24081262	     24.35682194	      2.57091834	      0.00000000	      5.80662446	     -0.33573196	      6.71427792	      3.39533079	      0.05925970	     21.33602704	     -6.88700423	      0.00000000	      0.29766680	      0.07284940	     -0.90905726	      0.55279702	      0.09688971	     -0.96587334	      0.48903679	      0.17712604	     -0.96587334	      0.34020339	      0.17712604	     -0.79542510	      0.27641339	      0.14855450	     -0.73860902	      0.17008681	      0.11284373	     -0.68179294	      2.12620421	      0.82408702	     -5.05590375	      0.00000000	      0.00000000	     27.97718250	      8.33034937	     10.68277288	     11.90125733	     -6.90805275	     58.28354105	     41.34603746	     58.93783645	     12.00467740	     11.54988886	      8.00759490	    -10.86516396	     43.63319573	     46.62350426	     72.71456081	     11.98304833	    -11.23467376
      0.15789474	      0.66048241	     -2.06686880	     94.88751686	      0.20987013	      0.78248197	      0.69673119	      9.04404678	     -1.31630639	     -5.98419939	     14.04178591	      0.24507540	     24.72777609	      2.42014766	      0.00000000	      5.76608058	     -0.35217751	      6.89214252	      3.50057991	      0.06109665	     21.39548781	     -6.83444066	      0.00000000	      0.25202236	      0.05776360	     -0.89440037	      0.46803072	      0.07682558	     -0.95030039	      0.41404753	      0.14044641	     -0.95030039	      0.28803635	      0.14044641	     -0.78260032	      0.23402796	      0.11779152	     -0.72670030	      0.14400558	      0.08947581	     -0.67080027	      1.80017051	      0.65343335	     -4.97438651	      0.00000000	      0.00000000	     27.75205309	      8.25334914	     10.63878084	     11.98426652	     -6.84540915	     58.29006245	     41.44543984	     58.94911583	     11.96528642	     11.77453883	      8.18626088	    -10.71734902	     43.63200538	     46.26888420	     72.67079516	     11.94966559	    -10.87943671
      0.18421053	      0.72546376	     -2.08961601	     95.04713872	      0.20988234	      0.78215426	      0.69630880	      9.05228484	     -1.25842141	     -6.03350363	     14.09981005	      0.24608811	     24.74807523	      2.37452057	      0.00000000	      5.78645575	     -0.40733251	      6.90274443	      3.49554723	      0.06100881	     21.45191482	     -6.85227979	      0.00000000	      0.23219701	      0.04694067	     -0.87974727	      0.43121306	      0.06243109	     -0.93473148	      0.38147646	      0.11413155	     -0.93473148	      0.26537796	      0.11413155	     -0.76977886	      0.21561814	      0.09572142	     -0.71479466	      0.13267737	      0.07271110	     -0.65981045	      1.65855999	      0.53100226	     -4.89289040	      0.00000000	      0.00000000	     27.60883499	      8.20979535	     10.64593072	     11.99650563	     -6.78523225	     58.30403424	     41.58516663	     58.95942613	     11.98254827	     11.80779570	      8.15323483	    -10.74525176	     43.63412385	     46.24413250	     72.65343722	     11.92756835	    -10.82676409
      0.21052632	      0.86510327	     -1.90257223	     95.73014615	      0.20846448	      0.78165545	      0.69573647	      8.92213893	     -1.16887444	     -6.11842889	     14.48891455	      0.25287926	     24.80474474	      0.99454964	      0.00000000	      5.69801258	     -0.45064519	      7.64909037	      3.67339268	      0.06411280	     21.84257200	     -6.85106877	      0.00000000	      0.19629806	      0.06164700	     -0.96342893	      0.36454513	      0.08199052	     -1.02364324	      0.32249808	      0.14988853	     -1.02364324	      0.22434905	      0.14988853	     -0.84300031	      0.18228238	      0.12571057	     -0.78278601	      0.11216471	      0.09549121	     -0.72257170	      1.40213742	      0.69736325	     -5.35830268	      0.00000000	      0.00000000	     27.29355574	      7.40893642	      9.90111827	     11.64459667	     -7.03678378	     57.04971934	     42.50041928	     62.91324068	     12.17963550	     12.63511299	      8.09673451	    -10.99146089	     44.71401966	     47.27284856	     70.16951650	      9.65139512	     -9.00616967
